<svg xmlns="http://www.w3.org/2000/svg"  viewBox="0 0 32 32" width="50px" height="50px" baseProfile="basic"><path fill="#09f" d="M23.983,26.247C19.197,24.683,15.135,21.194,16,16c-5.201,1.855-5.862,7.686-4.885,12.044 c1.447,0.569,3.431,1.189,6.351,0.861C19.511,28.675,21.752,27.993,23.983,26.247z"/><path fill="#49db23" d="M11.117,28.038C10.078,23.111,11.069,17.848,16,16c-4.207-3.577-9.587-1.233-12.873,1.791 c0.231,1.538,0.686,3.566,2.43,5.93C6.779,25.378,8.49,26.978,11.117,28.038z"/><path fill="#ffd200" d="M3.134,17.79C6.882,14.427,11.934,12.654,16,16c0.994-5.432-3.726-8.92-7.988-10.253 c-1.216,0.969-2.745,2.377-3.921,5.07C3.268,12.703,2.738,14.985,3.134,17.79z"/><path fill="#ffa000" d="M8.017,5.753C12.803,7.317,16.865,10.806,16,16c5.201-1.855,5.862-7.686,4.885-12.044 c-1.447-0.569-3.431-1.189-6.351-0.861C12.489,3.325,10.248,4.007,8.017,5.753z"/><path fill="#ff4030" d="M20.883,3.962C21.922,8.89,20.932,14.152,16.001,16c4.207,3.577,9.587,1.233,12.873-1.791 c-0.231-1.538-0.686-3.566-2.43-5.93C25.222,6.622,23.511,5.022,20.883,3.962z"/><path fill="#d738ff" d="M28.867,14.21c-3.748,3.363-8.8,5.137-12.866,1.79c-0.994,5.432,3.726,8.92,7.988,10.253 c1.216-0.969,2.745-2.377,3.921-5.07C28.732,19.297,29.262,17.015,28.867,14.21z"/></svg>